<?xml version="1.0" encoding="utf-8"?>
<!-- Generator: Adobe Illustrator 19.0.0, SVG Export Plug-In . SVG Version: 6.00 Build 0)  -->
<svg version="1.1" id="图层_1" xmlns="http://www.w3.org/2000/svg" xmlns:xlink="http://www.w3.org/1999/xlink" x="0px" y="0px"
	 viewBox="0 0 69.9 48" style="enable-background:new 0 0 69.9 48;" xml:space="preserve">
<style type="text/css">
	.st0{fill:#040000;}
</style>
<g id="XMLID_1_">
	<path id="XMLID_2_" class="st0" d="M27.7,3.7l-3.6-2.2c-5.5-3.3-9.9-0.8-9.9,5.6V41c0,6.4,4.5,8.9,9.9,5.6l3.5-2.2
		c-0.3-1-0.5-2.1-0.5-3.4V7C27.2,5.7,27.4,4.6,27.7,3.7z"/>
	<path id="XMLID_6_" class="st0" d="M65.8,17.9L39,1.5C33.5-1.9,29,0.7,29,7V41c0,6.4,4.5,8.9,9.9,5.6l26.9-16.4
		C71.3,26.8,71.3,21.3,65.8,17.9z"/>
	<path id="XMLID_7_" class="st0" d="M13.5,3.7L9.9,1.5C4.5-1.9,0,0.7,0,7V41c0,6.4,4.5,8.9,9.9,5.6l3.5-2.2c-0.3-1-0.5-2.1-0.5-3.4
		V7C13,5.7,13.2,4.6,13.5,3.7z"/>
</g>
</svg>
