<?xml version="1.0" encoding="utf-8"?>
<!-- Generator: Adobe Illustrator 19.0.0, SVG Export Plug-In . SVG Version: 6.00 Build 0)  -->
<svg version="1.1" id="图层_1" xmlns="http://www.w3.org/2000/svg" xmlns:xlink="http://www.w3.org/1999/xlink" x="0px" y="0px"
	 viewBox="-226 374.6 142.2 93.3" style="enable-background:new -226 374.6 142.2 93.3;" xml:space="preserve">
<style type="text/css">
	.st0{fill:none;stroke:#000000;stroke-miterlimit:10;}
</style>
<path class="st0" d="M-103.2,465.1c10.6,6.5,19.3,1.6,19.3-10.8v-66c0-12.5-8.7-17.3-19.3-10.8l-52.2,31.9
	c-10.6,6.5-10.6,17.2,0,23.7L-103.2,465.1z"/>
<g>
	<path d="M-218,433.1l52.2,31.9c10.6,6.5,19.3,1.6,19.3-10.8v-15.7l43.3,26.5c10.6,6.5,19.3,1.6,19.3-10.8v-65.9
		c0-12.5-8.7-17.3-19.3-10.8l-43.3,26.5v-15.7c0-12.5-8.7-17.3-19.3-10.8l-52.2,31.9C-228.7,415.9-228.7,426.6-218,433.1z"/>
	<path class="st0" d="M-165.8,465.1c10.6,6.5,19.3,1.6,19.3-10.8v-66c0-12.5-8.7-17.3-19.3-10.8l-52.2,31.9
		c-10.7,6.5-10.7,17.2,0,23.7L-165.8,465.1z"/>
</g>
</svg>
