<?xml version="1.0" encoding="utf-8"?>
<!-- Generator: Adobe Illustrator 19.0.0, SVG Export Plug-In . SVG Version: 6.00 Build 0)  -->
<svg version="1.1" id="图层_1" xmlns="http://www.w3.org/2000/svg" xmlns:xlink="http://www.w3.org/1999/xlink" x="0px" y="0px"
	 viewBox="-226 350 141.9 141.9" style="enable-background:new -226 350 141.9 141.9;" xml:space="preserve">
<path id="XMLID_4_" d="M-89.2,464.7l-32.7-32.7c-6.1-6.1-6.1-16,0-22.1l32.7-32.7c6.1-6.1,6.1-16,0-22.1l0,0c-6.1-6.1-16-6.1-22.1,0
	l-32.7,32.7c-6.1,6.1-16,6.1-22.1,0l-32.7-32.7c-6.1-6.1-16-6.1-22.1,0l0,0c-6.1,6.1-6.1,16,0,22.1l32.7,32.7c6.1,6.1,6.1,16,0,22.1
	l-32.7,32.7c-6.1,6.1-6.1,16,0,22.1l0,0c6.1,6.1,16,6.1,22.1,0l32.7-32.7c6.1-6.1,16-6.1,22.1,0l32.7,32.7c6.1,6.1,16,6.1,22.1,0
	l0,0C-83.1,480.7-83.1,470.8-89.2,464.7z"/>
</svg>
