<?xml version="1.0" encoding="utf-8"?>
<!-- Generator: Adobe Illustrator 19.0.0, SVG Export Plug-In . SVG Version: 6.00 Build 0)  -->
<svg version="1.1" id="图层_1" xmlns="http://www.w3.org/2000/svg" xmlns:xlink="http://www.w3.org/1999/xlink" x="0px" y="0px"
	 viewBox="0 0 69.9 48" style="enable-background:new 0 0 69.9 48;" xml:space="preserve">
<style type="text/css">
	.st0{fill:#040000;}
</style>
<g id="XMLID_1_">
	<path id="XMLID_2_" class="st0" d="M42.2,44.4l3.6,2.2c5.5,3.3,9.9,0.8,9.9-5.6V7.1c0-6.4-4.5-8.9-9.9-5.6l-3.5,2.2
		c0.3,1,0.5,2.1,0.5,3.4V41C42.7,42.3,42.5,43.4,42.2,44.4z"/>
	<path id="XMLID_6_" class="st0" d="M4.1,30.1L31,46.6c5.5,3.3,9.9,0.8,9.9-5.6V7.1c0-6.4-4.5-8.9-9.9-5.6L4.1,17.9
		C-1.4,21.3-1.4,26.8,4.1,30.1z"/>
	<path id="XMLID_7_" class="st0" d="M56.4,44.4l3.6,2.2c5.5,3.3,9.9,0.8,9.9-5.6V7.1c0-6.4-4.5-8.9-9.9-5.6l-3.5,2.2
		c0.3,1,0.5,2.1,0.5,3.4V41C57,42.3,56.8,43.4,56.4,44.4z"/>
</g>
</svg>
