<?xml version="1.0" encoding="utf-8"?>
<!-- Generator: Adobe Illustrator 19.0.0, SVG Export Plug-In . SVG Version: 6.00 Build 0)  -->
<svg version="1.1" id="图层_1" xmlns="http://www.w3.org/2000/svg" xmlns:xlink="http://www.w3.org/1999/xlink" x="0px" y="0px"
	 viewBox="-76 270.3 441.6 301.6" style="enable-background:new -76 270.3 441.6 301.6;" xml:space="preserve">
<g id="图层_2">
	<path id="XMLID_6_" d="M283.8,378.9c1.7-4.9,2.6-10.2,2.6-15.7c0-27.3-22.1-49.4-49.4-49.4c-10.9,0-20.9,3.5-29.1,9.5
		c-23.4-31.8-61.2-52.5-103.7-52.5c-70.7,0-128,56.9-128.7,127.4c-30.2,14.9-51,46-51,81.9c0,50.4,40.9,91.3,91.3,91.3h252.4
		c53.5,0,96.9-43.4,96.9-96.9C365,426.4,329.9,386.4,283.8,378.9z M58.1,440.5h41.8c2.3,0,4.1-1.8,4.1-4.1v-70.5
		c0-2.3,1.8-4.1,4.1-4.1h63.3c2.3,0,4.1,1.8,4.1,4.1v70.5c0,2.3,1.8,4.1,4.1,4.1h45.7c3.7,0,5.5,4.4,2.9,7l-83.6,83.6
		c-1.6,1.6-4.2,1.6-5.8,0l-83.6-83.6C52.7,444.9,54.5,440.5,58.1,440.5z"/>
</g>
</svg>
