<?xml version="1.0" encoding="utf-8"?>
<!-- Generator: Adobe Illustrator 19.0.0, SVG Export Plug-In . SVG Version: 6.00 Build 0)  -->
<svg version="1.1" id="图层_1" xmlns="http://www.w3.org/2000/svg" xmlns:xlink="http://www.w3.org/1999/xlink" x="0px" y="0px"
	 viewBox="-226 374.6 142.2 93.3" style="enable-background:new -226 374.6 142.2 93.3;" xml:space="preserve">
<style type="text/css">
	.st0{fill:none;stroke:#000000;stroke-miterlimit:10;}
</style>
<g>
	<path d="M-91.8,409.4l-52.2-31.9c-10.6-6.5-19.3-1.6-19.3,10.8V404l-43.4-26.5c-10.6-6.5-19.3-1.6-19.3,10.8v65.9
		c0,12.5,8.7,17.4,19.3,10.9l43.3-26.5v15.7c0,12.5,8.7,17.3,19.3,10.8l52.2-31.9C-81.2,426.6-81.2,415.9-91.8,409.4z"/>
	<path class="st0" d="M-144,377.5c-10.6-6.5-19.3-1.6-19.3,10.8v65.9c0,12.5,8.7,17.3,19.3,10.8l52.2-31.9
		c10.6-6.5,10.6-17.2,0-23.7L-144,377.5z"/>
</g>
</svg>
