<?xml version="1.0" encoding="utf-8"?>
<!-- Generator: Adobe Illustrator 19.0.0, SVG Export Plug-In . SVG Version: 6.00 Build 0)  -->
<svg version="1.1" id="图层_1" xmlns="http://www.w3.org/2000/svg" xmlns:xlink="http://www.w3.org/1999/xlink" x="0px" y="0px"
	 viewBox="-157 280.9 281 281" style="enable-background:new -157 280.9 281 281;" xml:space="preserve">
<path id="XMLID_9_" d="M-16.5,281.4c-77.3,0-140,62.7-140,140s62.7,140,140,140s140-62.7,140-140S60.8,281.4-16.5,281.4z
	 M-4.8,506.2c0,6.4-5.2,11.6-11.6,11.6H-19c-6.4,0-11.6-5.2-11.6-11.6v-3.9c0-6.4,5.2-11.6,11.6-11.6h2.5c6.4,0,11.6,5.2,11.6,11.6
	L-4.8,506.2L-4.8,506.2z M37.2,396.2c-2.7,5.7-8.6,12.9-17.5,21.5S4.8,432.4,1.9,436c-2.9,3.6-5.1,8-6.6,13
	c-0.8,2.7-1.4,5.9-1.7,9.7c-0.5,6-5.5,10.6-11.5,10.6c-6.8,0-12.2-5.9-11.6-12.7c0.4-4.2,1-7.9,1.9-11.1c1.6-5.9,4-11.1,7.2-15.5
	s8.9-10.9,17.2-19.5s13.7-14.8,16-18.7c2.4-3.9,3.6-9.7,3.6-17.4s-2.7-14.5-8.2-20.4c-5.5-5.9-13.4-8.9-23.9-8.9
	c-20.5,0-32.1,10.6-34.7,31.9c-0.7,5.8-5.7,10.1-11.5,10.1l0,0c-6.9,0-12.3-6-11.5-12.8c0.8-6.6,2-12,3.7-16.2
	c2.7-6.6,6.9-12.6,12.7-17.8c5.8-5.2,12.3-9.1,19.5-11.5c7.2-2.5,14.7-3.7,22.7-3.7c16.1,0,29.5,4.7,40.2,14.2s16,22.1,16,37.8
	C41.3,384,40,390.5,37.2,396.2z"/>
</svg>
