<?xml version="1.0" encoding="utf-8"?>
<!-- Generator: Adobe Illustrator 19.0.0, SVG Export Plug-In . SVG Version: 6.00 Build 0)  -->
<svg version="1.1" id="图层_1" xmlns="http://www.w3.org/2000/svg" xmlns:xlink="http://www.w3.org/1999/xlink" x="0px" y="0px"
	 viewBox="-164 264.6 274.1 302.3" style="enable-background:new -164 264.6 274.1 302.3;" xml:space="preserve">
<path id="XMLID_8_" d="M102.1,310.6H44.8l-22.5-40.2c-2-3.6-5.8-5.8-10-5.8h-78.5c-4.1,0-7.9,2.2-10,5.8l-22.5,40.2h-57.2
	c-4.5,0-8.1,3.6-8.1,8.1v17.1c0,4.5,3.6,8.1,8.1,8.1h27.4v193.4c0,16.3,13.3,29.6,29.6,29.6H45c16.3,0,29.6-13.3,29.6-29.6V343.8
	H102c4.5,0,8.1-3.6,8.1-8.1v-17C110.1,314.2,106.5,310.6,102.1,310.6z M-54.5,285.6H0.7c3.6,0,6.8,2,8.4,5.1l10.8,19.9h-93.7
	l10.8-19.9C-61.3,287.6-58.1,285.6-54.5,285.6z M-67.5,517.8c0,4.3-3.5,7.8-7.8,7.8h-7.4c-4.3,0-7.8-3.5-7.8-7.8V375.9
	c0-4.3,3.5-7.8,7.8-7.8h7.4c4.3,0,7.8,3.5,7.8,7.8C-67.5,375.9-67.5,517.8-67.5,517.8z M-15.1,517.8c0,4.3-3.5,7.8-7.8,7.8h-4h-4
	c-4.3,0-7.8-3.5-7.8-7.8V375.9c0-4.3,3.5-7.8,7.8-7.8h4h4c4.3,0,7.8,3.5,7.8,7.8C-15.1,375.9-15.1,517.8-15.1,517.8z M36.6,517.8
	c0,4.3-3.5,7.8-7.8,7.8h-7.4c-4.3,0-7.8-3.5-7.8-7.8V375.9c0-4.3,3.5-7.8,7.8-7.8h7.4c4.3,0,7.8,3.5,7.8,7.8V517.8z"/>
</svg>
