<?xml version="1.0" encoding="utf-8"?>
<!-- Generator: Adobe Illustrator 19.0.0, SVG Export Plug-In . SVG Version: 6.00 Build 0)  -->
<svg version="1.1" id="图层_1" xmlns="http://www.w3.org/2000/svg" xmlns:xlink="http://www.w3.org/1999/xlink" x="0px" y="0px"
	 viewBox="-76 270.3 441.6 301.6" style="enable-background:new -76 270.3 441.6 301.6;" xml:space="preserve">
<g id="图层_2">
	<path id="XMLID_6_" d="M283.8,379.4c1.7-4.9,2.6-10.2,2.6-15.7c0-27.3-22.1-49.4-49.4-49.4c-10.9,0-20.9,3.5-29.1,9.5
		c-23.4-31.8-61.2-52.5-103.7-52.5c-70.7,0-128,56.9-128.7,127.4c-30.2,14.9-51,46-51,81.9c0,50.4,40.9,91.3,91.3,91.3h252.4
		c53.5,0,96.9-43.4,96.9-96.9C365,426.9,329.9,386.9,283.8,379.4z M225.4,442.1h-41.8c-2.3,0-4.1,1.8-4.1,4.1v74.5
		c0,2.3-1.8,4.1-4.1,4.1h-63.3c-2.3,0-4.1-1.8-4.1-4.1v-74.5c0-2.3-1.8-4.1-4.1-4.1H58.2c-3.7,0-5.5-4.4-2.9-7l83.6-83.6
		c1.6-1.6,4.2-1.6,5.8,0l83.6,83.6C230.8,437.7,229,442.1,225.4,442.1z"/>
</g>
</svg>
