<?xml version="1.0" encoding="utf-8"?>
<!-- Generator: Adobe Illustrator 19.0.0, SVG Export Plug-In . SVG Version: 6.00 Build 0)  -->
<svg version="1.1" id="图层_1" xmlns="http://www.w3.org/2000/svg" xmlns:xlink="http://www.w3.org/1999/xlink" x="0px" y="0px"
	 viewBox="-227 357.3 139.5 127.6" style="enable-background:new -227 357.3 139.5 127.6;" xml:space="preserve">
<style type="text/css">
	.st0{stroke:#000000;stroke-linecap:round;stroke-miterlimit:10;}
</style>
<path class="st0" d="M-5,690.8"/>
<g id="XMLID_1_">
	<path id="XMLID_2_" d="M-169.6,358.4l-31.3,19.1h-15.4c-5.9,0-10.7,4.8-10.7,10.7v65.7c0,5.9,4.8,10.7,10.7,10.7h15.4l31.3,19.1
		c5.1,3.1,11.6-0.6,11.6-6.5V364.9C-158,359-164.5,355.3-169.6,358.4z"/>
	<path id="XMLID_11_" d="M-109,364.5c-2.1-2.4-5.8-2.6-8.1-0.3l0,0c-2,2-2.1,5.2-0.2,7.4c11.8,13.6,18.9,31.5,18.9,51.1
		c0,19.6-7.1,37.4-18.9,51.1c-1.9,2.2-1.7,5.4,0.2,7.4l0,0c2.2,2.3,6,2.2,8.1-0.3c13.4-15.6,21.5-35.9,21.5-58.2
		C-87.5,400.4-95.6,380.1-109,364.5z"/>
	<path id="XMLID_12_" d="M-124.4,380.2c-2-2.5-5.8-2.6-8.1-0.3l0,0c-2,2-2.1,5.2-0.3,7.4c7.9,9.6,12.6,21.9,12.6,35.4
		s-4.7,25.8-12.6,35.4c-1.8,2.2-1.7,5.3,0.3,7.4l0,0c2.3,2.3,6.1,2.2,8.1-0.3c9.4-11.5,15.1-26.3,15.1-42.5S-115,391.7-124.4,380.2z
		"/>
	<path id="XMLID_13_" d="M-139.7,396.2c-2-2.7-5.9-2.9-8.3-0.5c-1.9,1.9-2.1,4.9-0.5,7.1c4.1,5.6,6.6,12.5,6.6,20s-2.4,14.4-6.6,20
		c-1.6,2.2-1.4,5.2,0.5,7.1l0,0c2.3,2.4,6.3,2.1,8.3-0.5c5.4-7.4,8.7-16.5,8.7-26.5C-131.1,412.8-134.3,403.6-139.7,396.2z"/>
</g>
</svg>
