<?xml version="1.0" encoding="utf-8"?>
<!-- Generator: Adobe Illustrator 19.0.0, SVG Export Plug-In . SVG Version: 6.00 Build 0)  -->
<svg version="1.1" id="图层_1" xmlns="http://www.w3.org/2000/svg" xmlns:xlink="http://www.w3.org/1999/xlink" x="0px" y="0px"
	 viewBox="-212 381.2 119.6 82.4" style="enable-background:new -212 381.2 119.6 82.4;" xml:space="preserve">
<style type="text/css">
	.st0{stroke:#000000;stroke-linecap:round;stroke-miterlimit:10;}
</style>
<path class="st0" d="M-459,1425.6"/>
<g id="XMLID_1_">
	<path id="XMLID_2_" d="M-174.6,387.2l-26.3,15.4h-5.4c-5.9,0-5.7,2.6-5.7,5.8V434c0,3.2-0.2,5.8,5.7,5.8h5.4l26.3,15.4
		c5.1,1.7,11.6-0.3,11.6-3.6v-61C-163,387.5-169.5,385.6-174.6,387.2z"/>
	<path id="XMLID_11_" d="M-112.2,382.5c-1.9-1.6-5.3-1.8-7.5-0.2l0,0c-1.8,1.4-1.9,3.6-0.2,5.1c10.9,9.3,17.4,21.6,17.4,35
		s-6.5,25.6-17.4,35c-1.7,1.5-1.6,3.7,0.2,5.1l0,0c2,1.6,5.5,1.5,7.5-0.2c12.3-10.7,19.8-24.6,19.8-39.9S-99.9,393.2-112.2,382.5z"
		/>
	<path id="XMLID_12_" d="M-126.4,393.2c-1.8-1.7-5.3-1.8-7.5-0.2l0,0c-1.8,1.4-1.9,3.6-0.3,5.1c7.3,6.6,11.6,15,11.6,24.3
		s-4.3,17.7-11.6,24.3c-1.7,1.5-1.6,3.6,0.3,5.1l0,0c2.1,1.6,5.6,1.5,7.5-0.2c8.7-7.9,13.9-18,13.9-29.1S-117.7,401.1-126.4,393.2z"
		/>
	<path id="XMLID_13_" d="M-140.5,404.2c-1.8-1.9-5.4-2-7.6-0.3c-1.7,1.3-1.9,3.4-0.5,4.9c3.8,3.8,6.1,8.6,6.1,13.7
		s-2.2,9.9-6.1,13.7c-1.5,1.5-1.3,3.6,0.5,4.9l0,0c2.1,1.6,5.8,1.4,7.6-0.3c5-5.1,8-11.3,8-18.2
		C-132.6,415.6-135.5,409.3-140.5,404.2z"/>
</g>
</svg>
