<?xml version="1.0" encoding="utf-8"?>
<!-- Generator: Adobe Illustrator 19.0.0, SVG Export Plug-In . SVG Version: 6.00 Build 0)  -->
<svg version="1.1" id="图层_1" xmlns="http://www.w3.org/2000/svg" xmlns:xlink="http://www.w3.org/1999/xlink" x="0px" y="0px"
	 viewBox="-170.3 292.7 245.4 245.3" style="enable-background:new -170.3 292.7 245.4 245.3;" xml:space="preserve">
<g>
	<rect x="-125.9" y="371.7" width="96.7" height="22.9"/>
	<path d="M70.8,510.1l-66.3-62c-5.2-5.2-12.3-7-18.1-3.5c32.9-35.5,32.1-91.1-2.3-125.5c-35.3-35.3-92.7-35.3-128,0
		c-35.3,35.3-35.3,92.7,0,128c34.5,34.4,90.1,35.1,125.5,2.2c-3.5,5.8-1.7,12.8,3.5,18.1l62,66.3c6.1,6.1,16.8,5.4,22.9-0.7
		C76.1,526.9,76.9,516.2,70.8,510.1z M-35.9,427c-24.2,24.2-63.6,24.2-87.8,0s-24.2-63.6,0-87.8c24.2-24.2,63.6-24.2,87.8,0
		C-11.7,363.4-11.7,402.8-35.9,427z"/>
</g>
</svg>
